# xmcd
#
# Track frame offsets: 
#        150
#        11950
#        23615
#        36450
#        49221
#        60098
#        72180
#        84715
#        98251
#        109986
#        123968
#        135300
#        145025
#        148071
#        152220
#        165318
#
# Disc length: 2336 seconds
#
# Revision: 2
# Processed by: cddbd v1.5.2PL0 Copyright (c) Steve Scherf et al.
# Submitted via: ExactAudioCopyFreeDBPlugin 1.0
#
DISCID=ce091e10
DTITLE=Aretha Franklin - Runnin' Out of Fools
DYEAR=1964
DGENRE=Soul
TTITLE0=Mockingbird
TTITLE1=How Glad I Am
TTITLE2=Walk on By
TTITLE3=Every Little Bit Hurts
TTITLE4=The Shoop Shoop Song (It's in His Kiss)
TTITLE5=You'll Lose a Good Thing
TTITLE6=I Can't Wait Until I See My Baby's Face
TTITLE7=It's Just a Matter of Time
TTITLE8=Runnin' Out of Fools
TTITLE9=My Guy
TTITLE10=Two Sides of Love
TTITLE11=One Room Paradise
TTITLE12=A General Market Advertisement from Columbia Records (bonus t
TTITLE12=rack)
TTITLE13=A Special Ad for Christmas (bonus track)
TTITLE14=The Christmas Song (Chestnuts Roasting on an Open Fire) (mono
TTITLE14=)
TTITLE15=Winter Wonderland (mono)
EXTD=Runnin' Out Of Fools\n©  2011 Columbia/Legacy\n\nOriginally Relea
EXTD=sed as Columbia CL 2281, CS 9081 on November 16, 1964\nCD Edition
EXTD=Released \n"Take a Look: Complete on Columbia" Collection Releas
EXTD=ed March 22, 2011\n\nAMG EXPERT REVIEW:  "Take a Look" Aretha Fra
EXTD=nklin has simply been one of the greatest singers of the modern g
EXTD=eneration, and whether bringing her powerful, passionate voice to
EXTD=bear on gospel standards, songs from the Great American Songbook
EXTD=, jazz standards, pop ditties, or deep Southern soul and R&B, she
EXTD=has always had the presence -- much like Ray Charles -- to make 
EXTD=anything she touches unmistakably hers. Franklin began her career
EXTD=in gospel when she was still a teenager, and her amazing vocal t
EXTD=alents, coupled with her fine piano playing, marked her as a once
EXTD=in-a-lifetime kind of artist, qualities very apparent to legenda
EXTD=ry talent scout John Hammond, who signed her to Columbia Records.
EXTD=The problem Hammond and Columbia immediately ran into, though, w
EXTD=as how to best present that spirited voice to the secular pop wor
EXTD=ld. Between 1960 and 1969 (her first release for the label was ac
EXTD=tually in 1961), Columbia tried Franklin in a variety of styles a
EXTD=nd settings, and if none of them exactly caught fire the way her 
EXTD=legendary later sides for Atlantic Records would, they still allo
EXTD=wed Franklin to explore a lot of avenues, and she was too good a 
EXTD=singer not to be at least memorable in all of them. This wonderfu
EXTD=l box set includes CDs of Franklin's seven full-length albums for
EXTD=the label, two CDs of her work with producers Bobby Scott (in 19
EXTD=63) and Clyde Otis (in 1964), a CD of singles produced by Bob Joh
EXTD=nston, plus rarities that were sweetened and released after Frank
EXTD=lin left Columbia for Atlantic and a DVD featuring Franklin perfo
EXTD=rming several songs at the piano on The Steve Allen Show in 1964.
EXTD=It's a tremendous set, and it portrays an artist working her own
EXTD=way toward how to best present herself to the world. We all know
EXTD=she got there.  -- Steve Leggett\n\nAMG EXPERT REVIEW: ("Runnin'
EXTD=Out Of Fools")  N/A\n
EXTT0=
EXTT1=
EXTT2=
EXTT3=
EXTT4=
EXTT5=
EXTT6=
EXTT7=
EXTT8=
EXTT9=
EXTT10=
EXTT11=
EXTT12=
EXTT13=
EXTT14=
EXTT15=
PLAYORDER=
